PathFileType	4	(X/Y/Z)	51_2_94_p1_0-393_filt_butterworth.trc
DataRate	CameraRate	NumFrames	NumMarkers	Units	OrigDataRate	OrigDataStartFrame	OrigNumFrames
51.0	51.0	6	27	m	51.0	343	393
Frame#	Time	RHip			RKnee			RAnkle			RBigToe			RSmallToe			RHeel			LHip			LKnee			LAnkle			LBigToe			LSmallToe			LHeel			Neck			Head			Nose			RShoulder			RElbow			RWrist			RThumb			RIndex			RPinky			LShoulder			LElbow			LWrist			LThumb			LIndex			LPinky			
		X1	Y1	Z1	X2	Y2	Z2	X3	Y3	Z3	X4	Y4	Z4	X5	Y5	Z5	X6	Y6	Z6	X7	Y7	Z7	X8	Y8	Z8	X9	Y9	Z9	X10	Y10	Z10	X11	Y11	Z11	X12	Y12	Z12	X13	Y13	Z13	X14	Y14	Z14	X15	Y15	Z15	X16	Y16	Z16	X17	Y17	Z17	X18	Y18	Z18	X19	Y19	Z19	X20	Y20	Z20	X21	Y21	Z21	X22	Y22	Z22	X23	Y23	Z23	X24	Y24	Z24	X25	Y25	Z25	X26	Y26	Z26	X27	Y27	Z27	
343	6.725490196078432	0.09230080773031103	0.4796641206350043	0.6052830871381049	0.0685477682488423	0.5787345672078972	1.047745286695314	0.05341108948442837	0.6939186666961912	1.4800035982313835	0.04243559537468643	0.4758949735910178	1.4848568793373607	0.10761583333101	0.5003312869537777	1.4923291159572942	0.0362698746961869	0.7662064614719857	1.528137288599691	-0.08235813003852469	0.462343573429994	0.5856320123120989	-0.11477752110529187	0.5895342193216199	1.04258817465303	-0.1125058695279781	0.6477649148718327	1.4466727102706791	-0.10260221520269358	0.46227076093925185	1.4793042040432471	-0.1547387726164638	0.5149578065909621	1.4905516099832175	-0.10774932403979393	0.7154697412419615	1.5164969600206977	0.02719173806667002	0.4188723916087469	0.08428741482516047	0.0426068103868595	0.36900260682659314	-0.12299443148851438	0.02966274428034198	0.32053866396763653	-0.01725363121835405	0.16803154761895203	0.44008252264981396	0.20192380213049882	0.26828103091408695	0.4539530236210736	0.4445930057851822	0.30742807278406076	0.32294047832222983	0.6717042536258266	0.2846540686205963	0.20843428491080346	0.763701042064975	0.29723547061383004	0.21684529927795235	0.7744717210604813	0.30469494569411776	0.31672531551203564	0.7919221442885539	-0.12190691454315755	0.4883710654245286	0.16142103500038718	-0.22130809965293957	0.5358311183399878	0.373992045899536	-0.26161949864784817	0.39795635027444026	0.5517871238401229	-0.2207463238491645	0.32027728163206837	0.632024206230872	-0.24921573140001024	0.3052775098056841	0.6533396999843746	-0.2850699869378017	0.38067023641119246	0.6576690352222534
344	6.745098039215686	0.09633638939678535	0.49252944485769024	0.6121946207010786	0.07042765926471375	0.5844157195335815	1.051162136652274	0.053376658297883	0.6941430676892391	1.4796364977826673	0.04234580034452169	0.47579476417908106	1.485208013807017	0.10764520737006368	0.5007790749150284	1.492596183772306	0.0363487209091453	0.7662742222081858	1.52827526512454	-0.08225884478345213	0.463224177422079	0.5866817447293853	-0.114876785496841	0.5896454425314089	1.042587854658445	-0.11221284958658229	0.6479413621062879	1.4468300116797166	-0.10196623650463117	0.4660719842157657	1.4793812557974084	-0.15473296966739417	0.5150292643081906	1.4903321930018085	-0.1075316210911907	0.7171819365216429	1.518120376702667	0.025593963540052264	0.4223769357271416	0.08401900470414105	0.03669580348292181	0.3753953196191693	-0.1247631585561041	0.03027376447373419	0.3201881067888065	-0.017300985905081754	0.16510187543026258	0.44041288635050063	0.2012768837477796	0.26758603214056464	0.4510102017300515	0.4495854214143742	0.2905961421299868	0.32839852432751093	0.6842477999445178	0.2452673693425555	0.2560820939726817	0.7855410298863228	0.2590960023757564	0.2550676074162919	0.7939640287895982	0.2854621186065892	0.3058319182504553	0.7971150446420746	-0.12251016103236259	0.489168499509242	0.16345356481714268	-0.2186202217727188	0.5378263926444461	0.3783732435898757	-0.2501602437459935	0.3883521478343503	0.5536626440444194	-0.2159052140068603	0.31992589191553056	0.6363555755967143	-0.23210986488754326	0.30451432103597126	0.6563724844736715	-0.2696057725511062	0.3659340588686291	0.6605585757668304
345	6.764705882352941	0.09845139986105847	0.5048164278202277	0.6181218306541495	0.0703777842845252	0.5847635838404958	1.0511582046080417	0.05338914275899589	0.6941516123868013	1.476789484712338	0.04216172748135813	0.4757151803361809	1.4850782036779402	0.10767806755148711	0.5011204229890277	1.4927270279480165	0.03631576006512619	0.7662920808812392	1.5284053015664987	-0.08286684340618145	0.4670619487088692	0.589728748714559	-0.11498052888524984	0.589679944933003	1.0426010998961057	-0.11193280385669098	0.6479813612308615	1.4468480273813844	-0.10175273692214111	0.4672708088279199	1.479321681203227	-0.15468045531122684	0.5151366269991988	1.4901750056057845	-0.10686814072386697	0.721566994718579	1.5197224117007528	0.02387997738474138	0.4275454701768724	0.08412497355158464	0.03163792688581156	0.3780233133963179	-0.12551236146895808	0.030299431321270536	0.3201484193660925	-0.017348027123039057	0.16240555644584959	0.4398555330030473	0.198627602675736	0.26695500828307683	0.45414562214347176	0.4526871442178033	0.2681358797118795	0.33152624414632725	0.6893639448823964	0.21094130827142282	0.30282560453218654	0.800061236320311	0.2261946065615861	0.3004163482757075	0.808941322940035	0.26514462903665775	0.3091877819358794	0.7999010979994339	-0.12246858607422548	0.48850466481101307	0.16617780455394943	-0.21706355570704067	0.53932263015473	0.38394910321422954	-0.2362937846275691	0.37261705483335406	0.5551863731530953	-0.20983605964888513	0.31468078332747995	0.64070656222591	-0.22079510087041776	0.30286393058821043	0.6582766908087629	-0.24921117219109126	0.3445247179659108	0.6612446189707228
346	6.784313725490196	0.09854220886632736	0.5139013723938973	0.6190760700037092	0.07041051508585237	0.5838872142053604	1.0501952193443957	0.05341966130935132	0.6940927406691219	1.4741669666246058	0.042430034519950664	0.4758011165075894	1.4849979978016286	0.1076992208187498	0.5010740814562887	1.4926780114936444	0.03619836734795595	0.7662612952658754	1.528038289612153	-0.08478149716294256	0.4745527222661511	0.5931310661946256	-0.11470831657978033	0.5896155921248875	1.0426152013999261	-0.11181862857370961	0.6479080528748302	1.4467274138934898	-0.10191159667554522	0.46696292736188266	1.478989891796218	-0.15466964841181058	0.5151605396104502	1.4909277820239166	-0.10602945483043784	0.7272907580407295	1.5209202747206638	0.022689720725826232	0.43114766308749247	0.08422911987787138	0.02841567346452559	0.37794452061060974	-0.12593138283768895	0.03031722335875755	0.3201957324237886	-0.017369113887158578	0.1603704830094212	0.43860671507717874	0.19509386751002528	0.26469251101874264	0.4553762207323351	0.45522284884638275	0.24192255907789423	0.3421420234360031	0.6929458639008639	0.18222164574285354	0.3276170594603645	0.806694886905431	0.20005755446040716	0.3279007965118142	0.8176540277296415	0.24268636630689075	0.33110533186859886	0.8071336910835867	-0.12325125399977319	0.4874979129803054	0.16805212554542018	-0.2153366289218222	0.540325635358705	0.3896787018597332	-0.22381852463884833	0.3593572286936794	0.5583908845448549	-0.1998606867244671	0.3029889032969284	0.6425169457506342	-0.21212174916065912	0.2948160099090348	0.6585129783944977	-0.2317776733656132	0.33044004784244313	0.6614013736128893
347	6.803921568627451	0.0977634344155077	0.518333198637129	0.6150928261675174	0.07145135085336475	0.5835835111915296	1.0495967997613675	0.05345229580936171	0.6940235619020354	1.473315956969945	0.043585073109466015	0.47614917365092707	1.4851238837650147	0.10770961578451792	0.5007314685585491	1.4925230507353549	0.03606865696159649	0.7661911152935589	1.526679732712013	-0.08725359536301247	0.48271939793544005	0.5949610219874746	-0.11363596585510165	0.5894896575679284	1.0425862563895438	-0.1118309978394516	0.6477822859072478	1.4465515700321272	-0.1022662765690188	0.46663079128407225	1.478809470788761	-0.1548269040452166	0.5150133634663911	1.4935494432311907	-0.1054985869798952	0.7315473584455018	1.5217913693881266	0.022300647040694378	0.4320966808875659	0.08424311821646344	0.026353322585498714	0.37791910042970356	-0.12684419933986427	0.030163618006987178	0.32023335075392517	-0.017329240370008887	0.15929204058885071	0.4376369111041274	0.19194525760600725	0.2585596648824474	0.45219466673771264	0.4577440772068304	0.22126953807685817	0.3574526996130862	0.6957356091623645	0.15862778838438263	0.3365106220251311	0.8072819211085898	0.179179917624453	0.33072401065157225	0.819538042816696	0.22407943620218404	0.3557740497455969	0.8153916512528788	-0.12561589101863965	0.4876203946687185	0.168541418788548	-0.21329113113830608	0.5409183092059575	0.39437135925370936	-0.21528167761062444	0.3562921241268109	0.5647388170570944	-0.18464896332359265	0.2911108010957456	0.6419644415451607	-0.20076296972977292	0.2777213714715762	0.6567854911681216	-0.2219739475280459	0.32824098850548583	0.6619108135810587
348	6.823529411764706	0.09749051407061779	0.5191978729425013	0.6094053760899563	0.07239616623151876	0.5832095441457806	1.0496709782594351	0.05347499007400779	0.6939679865289421	1.4735171127927178	0.045263705887890346	0.47684748583905157	1.4854761417092273	0.10773427986425531	0.5004661704567475	1.4923825955891887	0.03597789665140328	0.7660635328999765	1.5247689322584732	-0.08832484301917314	0.4867142725959369	0.5946693826884037	-0.11203094831210403	0.5894764001904934	1.042475774171646	-0.11186318080196626	0.6476687890223548	1.446421008596562	-0.10263014631694109	0.4666024254584031	1.4797168470511686	-0.1550974313602206	0.5147793471985079	1.4972578423657044	-0.10542088614906633	0.7324299429591359	1.5220405521467015	0.022261569458650467	0.4318548354746999	0.08421086567011388	0.023847137834927826	0.38037769899978857	-0.12783643864524566	0.029132962719926443	0.3203282718280065	-0.017228237248537726	0.15872036210513438	0.437510341924694	0.1892586731929889	0.24784463999521125	0.44983835251129106	0.45853871143963537	0.20975237936192195	0.37137324588711745	0.696320106987756	0.13961287901092562	0.3479271052234969	0.8062324284720945	0.16090935270551046	0.3245843034672384	0.8182532370666984	0.2107635878848121	0.37243998934533673	0.8205738010642403	-0.12949455683233965	0.4903642551376882	0.16851704739711804	-0.21106689132423928	0.5413895509674528	0.3979221060541034	-0.21022112260755021	0.36401025658481967	0.5727006257052979	-0.1668907804322241	0.2856567730329901	0.6427051508008713	-0.18660146829186336	0.25982816573076456	0.6536990600211116	-0.21751732420510905	0.3308726983214312	0.6629494749656439
